<svg xmlns="http://www.w3.org/2000/svg" version="1.0" preserveAspectRatio="xMidYMid meet" viewBox="137.44 218.1 233.56 47.3">

<g transform="translate(0.000000,500.000000) scale(0.100000,-0.100000)" fill="#ffffff" stroke="none">
<path d="M1485 2801 c-49 -30 -68 -58 -73 -109 -4 -41 0 -52 23 -80 15 -18 51 -45 79 -59 64 -32 86 -51 86 -74 0 -43 -74 -51 -138 -14 l-42 24 -26 -40 c-13 -22 -22 -44 -19 -50 17 -27 92 -53 160 -53 92 -1 140 22 166 78 39 86 15 133 -102 196 -46 25 -85 53 -87 62 -2 9 8 24 22 34 24 15 29 15 77 0 28 -10 52 -16 54 -14 1 2 10 18 20 37 14 28 15 36 3 46 -40 37 -155 46 -203 16z" fill="#ffffff"/>
<path d="M3148 2812 l-128 -3 0 -229 0 -230 55 0 54 0 3 93 3 92 73 3 72 3 0 44 0 45 -75 0 -75 0 0 45 0 45 79 0 80 0 3 32 c3 30 7 26 76 -78 l72 -110 0 -107 0 -107 55 0 55 0 0 104 0 104 80 118 c44 65 80 122 80 126 0 4 -27 8 -60 8 l-59 0 -45 -70 c-25 -38 -48 -70 -50 -70 -2 0 -24 32 -47 70 l-44 70 -51 0 c-29 0 -58 1 -66 3 -7 1 -70 1 -140 -1z" fill="#ffffff"/>
<path d="M1750 2580 l0 -230 50 0 50 0 0 85 0 85 43 0 c67 0 113 18 146 56 27 30 31 42 31 93 0 44 -5 65 -21 85 -37 47 -68 56 -189 56 l-110 0 0 -230z m188 134 c26 -18 30 -65 6 -88 -9 -9 -32 -16 -55 -16 l-39 0 0 60 0 60 33 0 c18 0 43 -7 55 -16z" fill="#ffffff"/>
<path d="M2100 2580 l0 -230 135 0 135 0 0 45 0 45 -80 0 -80 0 0 185 0 185 -55 0 -55 0 0 -230z" fill="#ffffff"/>
<path d="M2400 2580 l0 -230 55 0 55 0 0 230 0 230 -55 0 -55 0 0 -230z" fill="#ffffff"/>
<path d="M2522 2768 l3 -43 52 -3 53 -3 2 -182 3 -182 53 -3 52 -3 0 185 0 186 55 0 55 0 0 45 0 45 -166 0 -165 0 3 -42z" fill="#ffffff"/>
<path d="M2870 2580 l0 -231 53 3 52 3 0 225 0 225 -52 3 -53 3 0 -231z" fill="#ffffff"/>
</g>
</svg>